<svg width="24" height="22" viewBox="0 0 24 22" fill="none" xmlns="http://www.w3.org/2000/svg">
<path d="M22.1095 2.03958C20.9304 0.724349 19.3045 0 17.5312 0C15.0496 0 13.1372 1.31585 12 3.80587C10.8628 1.31585 8.95036 0 6.46875 0C4.69552 0 3.06961 0.724349 1.89047 2.03963C0.653719 3.41919 0 5.30764 0 7.50083C0 10.1315 1.51762 13.0258 4.51069 16.1031C7.22447 18.8933 10.1986 20.8514 10.7673 21.2157C11.0043 21.3674 11.5317 21.7024 11.5317 21.7024L12.0001 22L12.4686 21.7022C12.4686 21.7022 12.9955 21.3673 13.2323 21.2156C13.801 20.8513 16.7753 18.893 19.4891 16.1031C22.4823 13.0258 24 10.1315 24 7.50083C24 5.30764 23.3463 3.41919 22.1095 2.03958ZM18.2097 14.5933C15.6429 17.2322 12.828 19.0855 12.2898 19.4302C12.214 19.4787 12.1083 19.5462 11.9999 19.6153C11.8913 19.5462 11.7855 19.4787 11.7098 19.4302C11.1716 19.0855 8.35697 17.2324 5.79009 14.5933C3.22884 11.9599 1.875 9.50741 1.875 7.50083C1.875 4.30045 3.76402 2.06529 6.46875 2.06529C8.22825 2.06529 9.48295 2.92368 10.3044 4.68955C10.9637 6.1064 11.0636 7.57533 11.0646 7.59L11.1006 7.58731H12.9355C12.9364 7.57317 13.0364 6.13546 13.6724 4.73984C14.481 2.96514 15.7793 2.06529 17.5312 2.06529C20.236 2.06529 22.125 4.30045 22.125 7.50083C22.125 9.50741 20.7711 11.9599 18.2097 14.5933Z" fill="white"/>
</svg>
