<svg width="274" height="39" viewBox="0 0 274 39" fill="none" xmlns="http://www.w3.org/2000/svg">
<path d="M13.42 16.04C13.42 17.4773 13.0827 18.5333 12.408 19.208C11.7333 19.8827 10.6773 20.22 9.24 20.22C8.36 20.22 7.40667 20.198 6.38 20.154C5.35333 20.11 4.4 20.0587 3.52 20C2.49333 19.9413 1.46667 19.868 0.44 19.78V16.81C1.43733 16.8687 2.41267 16.9273 3.366 16.986C4.18733 17.03 5.04533 17.0667 5.94 17.096C6.84933 17.1253 7.656 17.14 8.36 17.14C8.69733 17.14 8.96133 17.0447 9.152 16.854C9.35733 16.6487 9.46 16.3773 9.46 16.04V15.16C9.46 14.28 9.02 13.84 8.14 13.84H2.86V10.76H7.7C8.58 10.76 9.02 10.32 9.02 9.44V9C9.02 8.12 8.58 7.68 7.7 7.68H0.66V4.6H8.8C10.2373 4.6 11.2933 4.93 11.968 5.59C12.6427 6.23533 12.98 7.22533 12.98 8.56C12.98 9.44 12.7747 10.1587 12.364 10.716C11.968 11.2587 11.44 11.64 10.78 11.86C11.1027 11.948 11.4253 12.0873 11.748 12.278C12.0707 12.4687 12.3493 12.7253 12.584 13.048C12.8333 13.3707 13.0313 13.7667 13.178 14.236C13.3393 14.6907 13.42 15.2187 13.42 15.82V16.04ZM19.7923 17.14C20.0709 17.14 20.3643 17.118 20.6723 17.074C20.9803 17.03 21.2663 16.9787 21.5303 16.92C21.8383 16.8613 22.1389 16.788 22.4323 16.7V15.38H19.2423C19.0223 15.38 18.8389 15.4533 18.6923 15.6C18.5456 15.7467 18.4723 15.93 18.4723 16.15V16.37C18.4723 16.59 18.5456 16.7733 18.6923 16.92C18.8389 17.0667 19.0223 17.14 19.2423 17.14H19.7923ZM17.9223 20.22C16.9249 20.22 16.1256 19.9193 15.5243 19.318C14.9229 18.7167 14.6223 17.9173 14.6223 16.92V15.93C14.6223 14.9327 14.9229 14.1333 15.5243 13.532C16.1256 12.9307 16.9249 12.63 17.9223 12.63H22.4323V11.75C22.4323 11.53 22.3589 11.3467 22.2123 11.2C22.0656 11.0533 21.8823 10.98 21.6623 10.98C21.0756 10.98 20.4376 11.002 19.7483 11.046C19.0736 11.0753 18.4356 11.112 17.8343 11.156C17.1303 11.2147 16.4263 11.266 15.7223 11.31V8.56C16.5289 8.472 17.3503 8.39867 18.1863 8.34C18.9049 8.28133 19.6896 8.23 20.5403 8.186C21.3909 8.142 22.2049 8.12 22.9823 8.12C23.9796 8.12 24.7789 8.42067 25.3803 9.022C25.9816 9.62333 26.2823 10.4227 26.2823 11.42V20H22.8723L22.6523 18.9C22.2709 19.1493 21.8603 19.3693 21.4203 19.56C21.0389 19.7213 20.6136 19.868 20.1443 20C19.6749 20.1467 19.1909 20.22 18.6923 20.22H17.9223ZM39.4763 4.05L39.8063 7.13L32.9863 7.9C32.2529 7.988 31.8863 8.35467 31.8863 9V10.32C32.3116 10.232 32.7443 10.1587 33.1843 10.1C33.5656 10.0413 33.9689 9.99 34.3943 9.946C34.8343 9.902 35.2449 9.88 35.6263 9.88H36.6163C37.6136 9.88 38.4129 10.1807 39.0143 10.782C39.6156 11.3833 39.9163 12.1827 39.9163 13.18V16.7C39.9163 17.8 39.6009 18.6653 38.9703 19.296C38.3543 19.912 37.4963 20.22 36.3963 20.22H31.5563C30.4563 20.22 29.5909 19.912 28.9603 19.296C28.3443 18.6653 28.0363 17.8 28.0363 16.7V8.89C28.0363 7.834 28.3883 6.94667 29.0923 6.228C29.8109 5.50933 30.7789 5.07667 31.9963 4.93L39.4763 4.05ZM35.1863 17.25C35.7729 17.25 36.0663 16.9567 36.0663 16.37V13.62C36.0663 13.4 35.9929 13.2167 35.8463 13.07C35.6996 12.9233 35.5163 12.85 35.2963 12.85H34.5263C34.2183 12.85 33.9029 12.8647 33.5803 12.894C33.2723 12.9087 32.9936 12.9307 32.7443 12.96C32.4509 13.004 32.1649 13.0407 31.8863 13.07V16.37C31.8863 16.9567 32.1796 17.25 32.7663 17.25H35.1863ZM46.304 17.14C46.5827 17.14 46.876 17.118 47.184 17.074C47.492 17.03 47.778 16.9787 48.042 16.92C48.35 16.8613 48.6507 16.788 48.944 16.7V15.38H45.754C45.534 15.38 45.3507 15.4533 45.204 15.6C45.0573 15.7467 44.984 15.93 44.984 16.15V16.37C44.984 16.59 45.0573 16.7733 45.204 16.92C45.3507 17.0667 45.534 17.14 45.754 17.14H46.304ZM44.434 20.22C43.4367 20.22 42.6373 19.9193 42.036 19.318C41.4347 18.7167 41.134 17.9173 41.134 16.92V15.93C41.134 14.9327 41.4347 14.1333 42.036 13.532C42.6373 12.9307 43.4367 12.63 44.434 12.63H48.944V11.75C48.944 11.53 48.8707 11.3467 48.724 11.2C48.5773 11.0533 48.394 10.98 48.174 10.98C47.5873 10.98 46.9493 11.002 46.26 11.046C45.5853 11.0753 44.9473 11.112 44.346 11.156C43.642 11.2147 42.938 11.266 42.234 11.31V8.56C43.0407 8.472 43.862 8.39867 44.698 8.34C45.4167 8.28133 46.2013 8.23 47.052 8.186C47.9027 8.142 48.7167 8.12 49.494 8.12C50.4913 8.12 51.2907 8.42067 51.892 9.022C52.4933 9.62333 52.794 10.4227 52.794 11.42V20H49.384L49.164 18.9C48.7827 19.1493 48.372 19.3693 47.932 19.56C47.5507 19.7213 47.1253 19.868 46.656 20C46.1867 20.1467 45.7027 20.22 45.204 20.22H44.434ZM59.388 7.24C57.4813 7.24 56.528 6.28667 56.528 4.38V3.72H59.388V4.27C59.388 4.49 59.4613 4.67333 59.608 4.82C59.7546 4.96667 59.938 5.04 60.158 5.04H60.818C61.038 5.04 61.2213 4.96667 61.368 4.82C61.5146 4.67333 61.588 4.49 61.588 4.27V3.72H64.448V4.38C64.448 6.28667 63.4946 7.24 61.588 7.24H59.388ZM62.358 8.34H66.428V20H62.578V13.62L58.838 20H54.768V8.34H58.618V14.72L62.358 8.34ZM74.1254 15.6H72.4754V20H68.6254V8.34H72.4754V12.63H74.2354L75.4454 10.21C75.5774 9.93133 75.7387 9.66733 75.9294 9.418C76.1347 9.16867 76.3694 8.94867 76.6334 8.758C76.8974 8.56733 77.1907 8.41333 77.5134 8.296C77.8507 8.17867 78.2247 8.12 78.6354 8.12C78.8554 8.12 79.0681 8.13467 79.2734 8.164C79.4934 8.17867 79.6841 8.20067 79.8454 8.23L80.3954 8.34V11.31H79.6254C79.3467 11.31 79.1121 11.3833 78.9214 11.53C78.7454 11.662 78.6134 11.8087 78.5254 11.97L77.4254 14.17L80.7254 20H76.5454L74.1254 15.6ZM86.4368 17.14C86.7155 17.14 87.0088 17.118 87.3168 17.074C87.6248 17.03 87.9108 16.9787 88.1748 16.92C88.4828 16.8613 88.7835 16.788 89.0768 16.7V15.38H85.8868C85.6668 15.38 85.4835 15.4533 85.3368 15.6C85.1901 15.7467 85.1168 15.93 85.1168 16.15V16.37C85.1168 16.59 85.1901 16.7733 85.3368 16.92C85.4835 17.0667 85.6668 17.14 85.8868 17.14H86.4368ZM84.5668 20.22C83.5695 20.22 82.7701 19.9193 82.1688 19.318C81.5675 18.7167 81.2668 17.9173 81.2668 16.92V15.93C81.2668 14.9327 81.5675 14.1333 82.1688 13.532C82.7701 12.9307 83.5695 12.63 84.5668 12.63H89.0768V11.75C89.0768 11.53 89.0035 11.3467 88.8568 11.2C88.7101 11.0533 88.5268 10.98 88.3068 10.98C87.7201 10.98 87.0821 11.002 86.3928 11.046C85.7181 11.0753 85.0801 11.112 84.4788 11.156C83.7748 11.2147 83.0708 11.266 82.3668 11.31V8.56C83.1735 8.472 83.9948 8.39867 84.8308 8.34C85.5495 8.28133 86.3341 8.23 87.1848 8.186C88.0355 8.142 88.8495 8.12 89.6268 8.12C90.6241 8.12 91.4235 8.42067 92.0248 9.022C92.6261 9.62333 92.9268 10.4227 92.9268 11.42V20H89.5168L89.2968 18.9C88.9155 19.1493 88.5048 19.3693 88.0648 19.56C87.6835 19.7213 87.2581 19.868 86.7888 20C86.3195 20.1467 85.8355 20.22 85.3368 20.22H84.5668ZM106.781 8.34V20H102.931V11.31H99.8508L99.5208 16.92C99.4621 17.9173 99.1321 18.7167 98.5308 19.318C97.9294 19.9193 97.1594 20.22 96.2208 20.22C96.0008 20.22 95.7588 20.2053 95.4948 20.176C95.2454 20.1613 95.0108 20.1393 94.7908 20.11C94.5268 20.0807 94.2701 20.044 94.0208 20V17.14H94.9008C95.4581 17.14 95.7514 16.8467 95.7808 16.26L96.2208 8.34H106.781Z" transform="translate(1)" fill="white"/>
<path d="M112.933 20.22C111.496 20.22 110.44 19.8827 109.765 19.208C109.09 18.5333 108.753 17.4773 108.753 16.04V9C108.753 7.46 109.098 6.34533 109.787 5.656C110.491 4.952 111.613 4.6 113.153 4.6H121.073V7.68H114.033C113.153 7.68 112.713 8.12 112.713 9V16.04C112.713 16.3773 112.808 16.6487 112.999 16.854C113.204 17.0447 113.476 17.14 113.813 17.14C114.092 17.14 114.414 17.14 114.781 17.14C115.148 17.1253 115.529 17.1107 115.925 17.096C116.321 17.0813 116.717 17.0667 117.113 17.052C117.524 17.0373 117.92 17.0153 118.301 16.986C119.196 16.9273 120.12 16.8687 121.073 16.81V19.78C120.09 19.868 119.115 19.9413 118.147 20C117.311 20.0587 116.424 20.11 115.485 20.154C114.561 20.198 113.71 20.22 112.933 20.22ZM136.256 20H132.296V7.68H126.796V20H122.836V4.6H136.256V20ZM151.116 20H138.906V4.6H151.116V7.68H142.866V10.65H149.356V13.73H142.866V16.92H151.116V20ZM152.871 20V4.6H156.831V16.92H162.331V4.6H166.291V16.92H167.941V22.86H164.201L163.981 20H152.871ZM179.593 8.78C179.593 7.9 179.153 7.46 178.273 7.46H174.533C173.653 7.46 173.213 7.9 173.213 8.78V15.82C173.213 16.7 173.653 17.14 174.533 17.14H178.273C179.153 17.14 179.593 16.7 179.593 15.82V8.78ZM183.553 15.82C183.553 17.36 183.201 18.482 182.497 19.186C181.808 19.8753 180.693 20.22 179.153 20.22H173.653C172.113 20.22 170.991 19.8753 170.287 19.186C169.598 18.482 169.253 17.36 169.253 15.82V8.78C169.253 7.24 169.598 6.12533 170.287 5.436C170.991 4.732 172.113 4.38 173.653 4.38H179.153C180.693 4.38 181.808 4.732 182.497 5.436C183.201 6.12533 183.553 7.24 183.553 8.78V15.82ZM187.534 4.6H199.084V16.92H200.734V22.86H196.994L196.774 20H188.194L187.974 22.86H184.234V16.92H185.664C185.898 16.656 186.104 16.3553 186.28 16.018C186.441 15.7247 186.588 15.38 186.72 14.984C186.866 14.5733 186.954 14.1187 186.984 13.62L187.534 4.6ZM195.124 16.92V7.68H191.054L190.724 13.18C190.694 13.7373 190.614 14.2433 190.482 14.698C190.35 15.1527 190.21 15.5487 190.064 15.886C189.902 16.2673 189.719 16.612 189.514 16.92H195.124ZM214.71 20H202.5V4.6H214.71V7.68H206.46V10.65H212.95V13.73H206.46V16.92H214.71V20ZM217.345 8.23C217.257 8.06867 217.125 7.922 216.949 7.79C216.773 7.64333 216.575 7.57 216.355 7.57H215.475V4.6C215.665 4.57067 215.871 4.534 216.091 4.49C216.281 4.46067 216.494 4.43867 216.729 4.424C216.963 4.39467 217.205 4.38 217.455 4.38C218.232 4.38 218.855 4.578 219.325 4.974C219.809 5.35533 220.212 5.854 220.535 6.47L222.735 10.65H224.275V4.6H228.235V10.65H229.775L231.975 6.47C232.297 5.854 232.693 5.35533 233.163 4.974C233.647 4.578 234.277 4.38 235.055 4.38C235.304 4.38 235.546 4.39467 235.781 4.424C236.015 4.43867 236.228 4.46067 236.419 4.49C236.639 4.534 236.844 4.57067 237.035 4.6V7.57H236.155C235.935 7.57 235.737 7.64333 235.561 7.79C235.385 7.922 235.253 8.06867 235.165 8.23L233.075 12.19L237.365 20H233.185L229.775 13.73H228.235V20H224.275V13.73H222.735L219.325 20H215.145L219.435 12.19L217.345 8.23ZM240.879 4.6H252.429V16.92H254.079V22.86H250.339L250.119 20H241.539L241.319 22.86H237.579V16.92H239.009C239.244 16.656 239.449 16.3553 239.625 16.018C239.787 15.7247 239.933 15.38 240.065 14.984C240.212 14.5733 240.3 14.1187 240.329 13.62L240.879 4.6ZM248.469 16.92V7.68H244.399L244.069 13.18C244.04 13.7373 243.959 14.2433 243.827 14.698C243.695 15.1527 243.556 15.5487 243.409 15.886C243.248 16.2673 243.065 16.612 242.859 16.92H248.469ZM258.595 20H254.305L260.135 4.6H264.535L270.365 20H266.075L265.085 17.25H259.585L258.595 20ZM260.575 14.39H264.095L262.335 9.22L260.575 14.39Z" transform="translate(1)" fill="#FFCC00"/>
<path d="M0.533203 7.77148C0.533203 7.15039 0.654297 6.5918 0.896484 6.0957C1.14258 5.59961 1.48242 5.2168 1.91602 4.94727C2.35352 4.67773 2.85156 4.54297 3.41016 4.54297C4.27344 4.54297 4.9707 4.8418 5.50195 5.43945C6.03711 6.03711 6.30469 6.83203 6.30469 7.82422V7.90039C6.30469 8.51758 6.18555 9.07227 5.94727 9.56445C5.71289 10.0527 5.375 10.4336 4.93359 10.707C4.49609 10.9805 3.99219 11.1172 3.42188 11.1172C2.5625 11.1172 1.86523 10.8184 1.33008 10.2207C0.798828 9.62305 0.533203 8.83203 0.533203 7.84766V7.77148ZM1.62305 7.90039C1.62305 8.60352 1.78516 9.16797 2.10938 9.59375C2.4375 10.0195 2.875 10.2324 3.42188 10.2324C3.97266 10.2324 4.41016 10.0176 4.73438 9.58789C5.05859 9.1543 5.2207 8.54883 5.2207 7.77148C5.2207 7.07617 5.05469 6.51367 4.72266 6.08398C4.39453 5.65039 3.95703 5.43359 3.41016 5.43359C2.875 5.43359 2.44336 5.64648 2.11523 6.07227C1.78711 6.49805 1.62305 7.10742 1.62305 7.90039ZM8.50945 10.1152L8.88445 9.65234C9.30633 9.10547 9.54656 8.28516 9.60516 7.19141L9.70477 4.66016H13.7888V10.1152H14.6032V12.8633H13.5192V11H9.09539V12.8633H8.01141L8.01727 10.1152H8.50945ZM9.79266 10.1152H12.7048V5.66211H10.7536L10.6891 7.17383C10.6227 8.43555 10.3239 9.41602 9.79266 10.1152ZM19.7552 11.1172C18.8959 11.1172 18.1966 10.8359 17.6576 10.2734C17.1185 9.70703 16.849 8.95117 16.849 8.00586V7.80664C16.849 7.17773 16.9681 6.61719 17.2064 6.125C17.4486 5.62891 17.7845 5.24219 18.2142 4.96484C18.6478 4.68359 19.1166 4.54297 19.6205 4.54297C20.4447 4.54297 21.0853 4.81445 21.5423 5.35742C21.9994 5.90039 22.2279 6.67773 22.2279 7.68945V8.14062H17.933C17.9486 8.76562 18.1302 9.27148 18.4779 9.6582C18.8295 10.041 19.2748 10.2324 19.8138 10.2324C20.1966 10.2324 20.5209 10.1543 20.7865 9.99805C21.0521 9.8418 21.2845 9.63477 21.4837 9.37695L22.1459 9.89258C21.6146 10.709 20.8177 11.1172 19.7552 11.1172ZM19.6205 5.43359C19.183 5.43359 18.8158 5.59375 18.5189 5.91406C18.222 6.23047 18.0384 6.67578 17.9681 7.25H21.1439V7.16797C21.1127 6.61719 20.9642 6.19141 20.6986 5.89062C20.433 5.58594 20.0736 5.43359 19.6205 5.43359ZM29.8643 8.24609H29.1026V11H28.0186V8.24609H27.2569L25.4815 11H24.1104L26.378 7.71875L24.3272 4.66016H25.6397L27.2745 7.28516H28.0186V4.66016H29.1026V7.28516H29.8409L31.4873 4.66016H32.7998L30.7432 7.72461L33.0108 11H31.6397L29.8643 8.24609ZM35.2624 10.1152L35.6374 9.65234C36.0593 9.10547 36.2995 8.28516 36.3581 7.19141L36.4577 4.66016H40.5417V10.1152H41.3562V12.8633H40.2722V11H35.8484V12.8633H34.7644L34.7702 10.1152H35.2624ZM36.5456 10.1152H39.4577V5.66211H37.5066L37.4421 7.17383C37.3757 8.43555 37.0769 9.41602 36.5456 10.1152ZM47.7914 11C47.7289 10.875 47.6781 10.6523 47.6391 10.332C47.1352 10.8555 46.5336 11.1172 45.8344 11.1172C45.2094 11.1172 44.6957 10.9414 44.2934 10.5898C43.8949 10.2344 43.6957 9.78516 43.6957 9.24219C43.6957 8.58203 43.9457 8.07031 44.4457 7.70703C44.9496 7.33984 45.6566 7.15625 46.5668 7.15625H47.6215V6.6582C47.6215 6.2793 47.5082 5.97852 47.2816 5.75586C47.0551 5.5293 46.7211 5.41602 46.2797 5.41602C45.893 5.41602 45.5687 5.51367 45.307 5.70898C45.0453 5.9043 44.9145 6.14062 44.9145 6.41797H43.8246C43.8246 6.10156 43.9359 5.79688 44.1586 5.50391C44.3852 5.20703 44.6898 4.97266 45.0727 4.80078C45.4594 4.62891 45.8832 4.54297 46.3441 4.54297C47.0746 4.54297 47.6469 4.72656 48.0609 5.09375C48.475 5.45703 48.6898 5.95898 48.7055 6.59961V9.51758C48.7055 10.0996 48.7797 10.5625 48.9281 10.9062V11H47.7914ZM45.9926 10.1738C46.3324 10.1738 46.6547 10.0859 46.9594 9.91016C47.2641 9.73438 47.4848 9.50586 47.6215 9.22461V7.92383H46.7719C45.4437 7.92383 44.7797 8.3125 44.7797 9.08984C44.7797 9.42969 44.893 9.69531 45.1195 9.88672C45.3461 10.0781 45.6371 10.1738 45.9926 10.1738ZM55.9685 10.1152L56.3435 9.65234C56.7654 9.10547 57.0056 8.28516 57.0642 7.19141L57.1638 4.66016H61.2478V10.1152H62.0623V12.8633H60.9783V11H56.5545V12.8633H55.4705L55.4763 10.1152H55.9685ZM57.2517 10.1152H60.1638V5.66211H58.2127L58.1482 7.17383C58.0818 8.43555 57.783 9.41602 57.2517 10.1152ZM69.7807 4.66016V11H68.6909V5.55664H66.5346L66.4057 7.92969C66.3354 9.01953 66.1518 9.79883 65.8549 10.2676C65.562 10.7363 65.0952 10.9805 64.4545 11H64.0209V10.0449L64.3315 10.0215C64.683 9.98242 64.935 9.7793 65.0873 9.41211C65.2397 9.04492 65.3373 8.36523 65.3803 7.37305L65.4975 4.66016H69.7807ZM77.6866 4.66016V11H76.5968V8.5332H74.962L73.4679 11H72.296L73.8898 8.36914C73.4835 8.2207 73.171 7.99219 72.9523 7.68359C72.7374 7.37109 72.63 7.00781 72.63 6.59375C72.63 6.01562 72.8468 5.55078 73.2804 5.19922C73.714 4.84375 74.2941 4.66406 75.0206 4.66016H77.6866ZM73.7198 6.60547C73.7198 6.91406 73.8253 7.16406 74.0362 7.35547C74.2472 7.54297 74.5265 7.63867 74.8741 7.64258H76.5968V5.53906H75.0382C74.6359 5.53906 74.3155 5.63867 74.0773 5.83789C73.839 6.0332 73.7198 6.28906 73.7198 6.60547ZM90.3989 7.90039C90.3989 8.86523 90.1782 9.64258 89.7368 10.2324C89.2954 10.8223 88.6977 11.1172 87.9438 11.1172C87.1743 11.1172 86.5688 10.873 86.1274 10.3848V13.4375H85.0434V4.66016H86.0337L86.0864 5.36328C86.5278 4.81641 87.1411 4.54297 87.9262 4.54297C88.688 4.54297 89.2895 4.83008 89.7309 5.4043C90.1762 5.97852 90.3989 6.77734 90.3989 7.80078V7.90039ZM89.3149 7.77734C89.3149 7.0625 89.1626 6.49805 88.8579 6.08398C88.5532 5.66992 88.1352 5.46289 87.604 5.46289C86.9477 5.46289 86.4555 5.75391 86.1274 6.33594V9.36523C86.4516 9.94336 86.9477 10.2324 87.6157 10.2324C88.1352 10.2324 88.5473 10.0273 88.852 9.61719C89.1606 9.20312 89.3149 8.58984 89.3149 7.77734ZM97.0158 11C96.9533 10.875 96.9025 10.6523 96.8634 10.332C96.3595 10.8555 95.758 11.1172 95.0587 11.1172C94.4337 11.1172 93.9201 10.9414 93.5177 10.5898C93.1193 10.2344 92.9201 9.78516 92.9201 9.24219C92.9201 8.58203 93.1701 8.07031 93.6701 7.70703C94.174 7.33984 94.881 7.15625 95.7912 7.15625H96.8459V6.6582C96.8459 6.2793 96.7326 5.97852 96.506 5.75586C96.2794 5.5293 95.9455 5.41602 95.5041 5.41602C95.1173 5.41602 94.7931 5.51367 94.5314 5.70898C94.2697 5.9043 94.1388 6.14062 94.1388 6.41797H93.049C93.049 6.10156 93.1603 5.79688 93.383 5.50391C93.6095 5.20703 93.9142 4.97266 94.297 4.80078C94.6837 4.62891 95.1076 4.54297 95.5685 4.54297C96.299 4.54297 96.8712 4.72656 97.2853 5.09375C97.6994 5.45703 97.9142 5.95898 97.9298 6.59961V9.51758C97.9298 10.0996 98.0041 10.5625 98.1525 10.9062V11H97.0158ZM95.2169 10.1738C95.5568 10.1738 95.8791 10.0859 96.1837 9.91016C96.4884 9.73438 96.7091 9.50586 96.8459 9.22461V7.92383H95.9962C94.6681 7.92383 94.0041 8.3125 94.0041 9.08984C94.0041 9.42969 94.1173 9.69531 94.3439 9.88672C94.5705 10.0781 94.8615 10.1738 95.2169 10.1738ZM103.732 5.02344C104.529 5.02344 105.166 5.29102 105.642 5.82617C106.123 6.35742 106.363 7.05859 106.363 7.92969V8.0293C106.363 8.62695 106.248 9.16211 106.017 9.63477C105.787 10.1035 105.455 10.4688 105.021 10.7305C104.592 10.9883 104.096 11.1172 103.533 11.1172C102.681 11.1172 101.996 10.834 101.476 10.2676C100.957 9.69727 100.697 8.93359 100.697 7.97656V7.44922C100.697 6.11719 100.943 5.05859 101.435 4.27344C101.931 3.48828 102.662 3.00977 103.627 2.83789C104.174 2.74023 104.543 2.62109 104.734 2.48047C104.926 2.33984 105.021 2.14648 105.021 1.90039H105.912C105.912 2.38867 105.801 2.76953 105.578 3.04297C105.359 3.31641 105.008 3.50977 104.523 3.62305L103.715 3.80469C103.07 3.95703 102.586 4.21484 102.262 4.57812C101.941 4.9375 101.732 5.41797 101.635 6.01953C102.209 5.35547 102.908 5.02344 103.732 5.02344ZM103.521 5.91406C102.99 5.91406 102.568 6.09375 102.256 6.45312C101.943 6.80859 101.787 7.30273 101.787 7.93555V8.0293C101.787 8.70898 101.943 9.24805 102.256 9.64648C102.572 10.041 102.998 10.2383 103.533 10.2383C104.072 10.2383 104.498 10.0391 104.81 9.64062C105.123 9.24219 105.279 8.66016 105.279 7.89453C105.279 7.29688 105.121 6.81836 104.805 6.45898C104.492 6.0957 104.064 5.91406 103.521 5.91406ZM108.615 7.77148C108.615 7.15039 108.736 6.5918 108.978 6.0957C109.224 5.59961 109.564 5.2168 109.998 4.94727C110.435 4.67773 110.933 4.54297 111.492 4.54297C112.355 4.54297 113.052 4.8418 113.584 5.43945C114.119 6.03711 114.386 6.83203 114.386 7.82422V7.90039C114.386 8.51758 114.267 9.07227 114.029 9.56445C113.794 10.0527 113.457 10.4336 113.015 10.707C112.578 10.9805 112.074 11.1172 111.503 11.1172C110.644 11.1172 109.947 10.8184 109.412 10.2207C108.88 9.62305 108.615 8.83203 108.615 7.84766V7.77148ZM109.705 7.90039C109.705 8.60352 109.867 9.16797 110.191 9.59375C110.519 10.0195 110.957 10.2324 111.503 10.2324C112.054 10.2324 112.492 10.0176 112.816 9.58789C113.14 9.1543 113.302 8.54883 113.302 7.77148C113.302 7.07617 113.136 6.51367 112.804 6.08398C112.476 5.65039 112.039 5.43359 111.492 5.43359C110.957 5.43359 110.525 5.64648 110.197 6.07227C109.869 6.49805 109.705 7.10742 109.705 7.90039ZM121.648 5.53906H119.521V11H118.437V5.53906H116.351V4.66016H121.648V5.53906ZM125.206 6.8457H126.852C127.571 6.85352 128.14 7.04102 128.558 7.4082C128.975 7.77539 129.184 8.27344 129.184 8.90234C129.184 9.53516 128.97 10.043 128.54 10.4258C128.11 10.8086 127.532 11 126.806 11H124.122V4.66016H125.206V6.8457ZM131.446 11H130.356V4.66016H131.446V11ZM125.206 7.73047V10.1152H126.817C127.224 10.1152 127.538 10.0117 127.761 9.80469C127.983 9.59375 128.095 9.30664 128.095 8.94336C128.095 8.5918 127.985 8.30469 127.766 8.08203C127.552 7.85547 127.249 7.73828 126.858 7.73047H125.206ZM143.057 4.66016H144.141V11H143.057V6.37695L140.133 11H139.049V4.66016H140.133V9.28906L143.057 4.66016ZM155.412 11C155.349 10.875 155.298 10.6523 155.259 10.332C154.755 10.8555 154.154 11.1172 153.455 11.1172C152.83 11.1172 152.316 10.9414 151.914 10.5898C151.515 10.2344 151.316 9.78516 151.316 9.24219C151.316 8.58203 151.566 8.07031 152.066 7.70703C152.57 7.33984 153.277 7.15625 154.187 7.15625H155.242V6.6582C155.242 6.2793 155.129 5.97852 154.902 5.75586C154.675 5.5293 154.341 5.41602 153.9 5.41602C153.513 5.41602 153.189 5.51367 152.927 5.70898C152.666 5.9043 152.535 6.14062 152.535 6.41797H151.445C151.445 6.10156 151.556 5.79688 151.779 5.50391C152.005 5.20703 152.31 4.97266 152.693 4.80078C153.08 4.62891 153.504 4.54297 153.964 4.54297C154.695 4.54297 155.267 4.72656 155.681 5.09375C156.095 5.45703 156.31 5.95898 156.326 6.59961V9.51758C156.326 10.0996 156.4 10.5625 156.548 10.9062V11H155.412ZM153.613 10.1738C153.953 10.1738 154.275 10.0859 154.58 9.91016C154.884 9.73438 155.105 9.50586 155.242 9.22461V7.92383H154.392C153.064 7.92383 152.4 8.3125 152.4 9.08984C152.4 9.42969 152.513 9.69531 152.74 9.88672C152.966 10.0781 153.257 10.1738 153.613 10.1738ZM161.32 8.29883H160.529V11H159.439V4.66016H160.529V7.34375H161.238L163.37 4.66016H164.683L162.175 7.70703L164.894 11H163.517L161.32 8.29883ZM171.856 5.53906H169.729V11H168.645V5.53906H166.56V4.66016H171.856V5.53906ZM178.333 4.66016H179.417V11H178.333V6.37695L175.409 11H174.325V4.66016H175.409V9.28906L178.333 4.66016ZM182.576 11V4.66016H185.049C185.893 4.66016 186.539 4.80859 186.989 5.10547C187.442 5.39844 187.668 5.83008 187.668 6.40039C187.668 6.69336 187.58 6.95898 187.405 7.19727C187.229 7.43164 186.969 7.61133 186.625 7.73633C187.008 7.82617 187.315 8.00195 187.545 8.26367C187.78 8.52539 187.897 8.83789 187.897 9.20117C187.897 9.7832 187.682 10.2285 187.252 10.5371C186.826 10.8457 186.223 11 185.442 11H182.576ZM183.66 8.2168V10.127H185.453C185.907 10.127 186.244 10.043 186.467 9.875C186.694 9.70703 186.807 9.4707 186.807 9.16602C186.807 8.5332 186.342 8.2168 185.412 8.2168H183.66ZM183.66 7.34961H185.061C186.076 7.34961 186.584 7.05273 186.584 6.45898C186.584 5.86523 186.104 5.55859 185.143 5.53906H183.66V7.34961ZM195.832 11H194.748V8.29297H191.836V11H190.746V4.66016H191.836V7.4082H194.748V4.66016H195.832V11ZM198.611 7.77148C198.611 7.15039 198.732 6.5918 198.974 6.0957C199.22 5.59961 199.56 5.2168 199.994 4.94727C200.431 4.67773 200.929 4.54297 201.488 4.54297C202.351 4.54297 203.049 4.8418 203.58 5.43945C204.115 6.03711 204.382 6.83203 204.382 7.82422V7.90039C204.382 8.51758 204.263 9.07227 204.025 9.56445C203.791 10.0527 203.453 10.4336 203.011 10.707C202.574 10.9805 202.07 11.1172 201.5 11.1172C200.64 11.1172 199.943 10.8184 199.408 10.2207C198.877 9.62305 198.611 8.83203 198.611 7.84766V7.77148ZM199.701 7.90039C199.701 8.60352 199.863 9.16797 200.187 9.59375C200.515 10.0195 200.953 10.2324 201.5 10.2324C202.05 10.2324 202.488 10.0176 202.812 9.58789C203.136 9.1543 203.299 8.54883 203.299 7.77148C203.299 7.07617 203.132 6.51367 202.8 6.08398C202.472 5.65039 202.035 5.43359 201.488 5.43359C200.953 5.43359 200.521 5.64648 200.193 6.07227C199.865 6.49805 199.701 7.10742 199.701 7.90039ZM211.158 5.55664H208.234V11H207.144V4.66016H211.158V5.55664ZM213.017 7.77148C213.017 7.15039 213.138 6.5918 213.38 6.0957C213.626 5.59961 213.966 5.2168 214.399 4.94727C214.837 4.67773 215.335 4.54297 215.894 4.54297C216.757 4.54297 217.454 4.8418 217.985 5.43945C218.521 6.03711 218.788 6.83203 218.788 7.82422V7.90039C218.788 8.51758 218.669 9.07227 218.431 9.56445C218.196 10.0527 217.858 10.4336 217.417 10.707C216.98 10.9805 216.476 11.1172 215.905 11.1172C215.046 11.1172 214.349 10.8184 213.814 10.2207C213.282 9.62305 213.017 8.83203 213.017 7.84766V7.77148ZM214.106 7.90039C214.106 8.60352 214.269 9.16797 214.593 9.59375C214.921 10.0195 215.358 10.2324 215.905 10.2324C216.456 10.2324 216.894 10.0176 217.218 9.58789C217.542 9.1543 217.704 8.54883 217.704 7.77148C217.704 7.07617 217.538 6.51367 217.206 6.08398C216.878 5.65039 216.44 5.43359 215.894 5.43359C215.358 5.43359 214.927 5.64648 214.599 6.07227C214.271 6.49805 214.106 7.10742 214.106 7.90039ZM225.477 7.77148C225.477 7.15039 225.598 6.5918 225.84 6.0957C226.086 5.59961 226.426 5.2168 226.86 4.94727C227.297 4.67773 227.795 4.54297 228.354 4.54297C229.217 4.54297 229.914 4.8418 230.446 5.43945C230.981 6.03711 231.248 6.83203 231.248 7.82422V7.90039C231.248 8.51758 231.129 9.07227 230.891 9.56445C230.657 10.0527 230.319 10.4336 229.877 10.707C229.44 10.9805 228.936 11.1172 228.366 11.1172C227.506 11.1172 226.809 10.8184 226.274 10.2207C225.743 9.62305 225.477 8.83203 225.477 7.84766V7.77148ZM226.567 7.90039C226.567 8.60352 226.729 9.16797 227.053 9.59375C227.381 10.0195 227.819 10.2324 228.366 10.2324C228.916 10.2324 229.354 10.0176 229.678 9.58789C230.002 9.1543 230.164 8.54883 230.164 7.77148C230.164 7.07617 229.998 6.51367 229.666 6.08398C229.338 5.65039 228.901 5.43359 228.354 5.43359C227.819 5.43359 227.387 5.64648 227.059 6.07227C226.731 6.49805 226.567 7.10742 226.567 7.90039ZM238.51 5.53906H236.383V11H235.299V5.53906H233.213V4.66016H238.51V5.53906ZM240.328 10.1152L240.703 9.65234C241.125 9.10547 241.365 8.28516 241.424 7.19141L241.523 4.66016H245.607V10.1152H246.422V12.8633H245.338V11H240.914V12.8633H239.83L239.836 10.1152H240.328ZM241.611 10.1152H244.523V5.66211H242.572L242.508 7.17383C242.441 8.43555 242.142 9.41602 241.611 10.1152ZM250.126 6.8457H251.773C252.492 6.85352 253.06 7.04102 253.478 7.4082C253.896 7.77539 254.105 8.27344 254.105 8.90234C254.105 9.53516 253.89 10.043 253.46 10.4258C253.031 10.8086 252.453 11 251.726 11H249.042V4.66016H250.126V6.8457ZM256.367 11H255.277V4.66016H256.367V11ZM250.126 7.73047V10.1152H251.738C252.144 10.1152 252.458 10.0117 252.681 9.80469C252.904 9.59375 253.015 9.30664 253.015 8.94336C253.015 8.5918 252.906 8.30469 252.687 8.08203C252.472 7.85547 252.169 7.73828 251.779 7.73047H250.126ZM261.706 6.97461L263.112 4.66016H264.378L262.304 7.79492L264.443 11H263.189L261.724 8.62695L260.259 11H258.999L261.138 7.79492L259.064 4.66016H260.318L261.706 6.97461ZM270.766 11C270.704 10.875 270.653 10.6523 270.614 10.332C270.11 10.8555 269.509 11.1172 268.809 11.1172C268.184 11.1172 267.671 10.9414 267.268 10.5898C266.87 10.2344 266.671 9.78516 266.671 9.24219C266.671 8.58203 266.921 8.07031 267.421 7.70703C267.925 7.33984 268.632 7.15625 269.542 7.15625H270.596V6.6582C270.596 6.2793 270.483 5.97852 270.257 5.75586C270.03 5.5293 269.696 5.41602 269.255 5.41602C268.868 5.41602 268.544 5.51367 268.282 5.70898C268.02 5.9043 267.889 6.14062 267.889 6.41797H266.8C266.8 6.10156 266.911 5.79688 267.134 5.50391C267.36 5.20703 267.665 4.97266 268.048 4.80078C268.434 4.62891 268.858 4.54297 269.319 4.54297C270.05 4.54297 270.622 4.72656 271.036 5.09375C271.45 5.45703 271.665 5.95898 271.68 6.59961V9.51758C271.68 10.0996 271.755 10.5625 271.903 10.9062V11H270.766ZM268.968 10.1738C269.307 10.1738 269.63 10.0859 269.934 9.91016C270.239 9.73438 270.46 9.50586 270.596 9.22461V7.92383H269.747C268.419 7.92383 267.755 8.3125 267.755 9.08984C267.755 9.42969 267.868 9.69531 268.095 9.88672C268.321 10.0781 268.612 10.1738 268.968 10.1738Z" transform="translate(0 24)" fill="white" fill-opacity="0.6"/>
</svg>
