<svg width="10" height="13" viewBox="0 0 10 13" fill="none" xmlns="http://www.w3.org/2000/svg">
<path fill-rule="evenodd" clip-rule="evenodd" d="M0 5.20801C0 2.3363 2.24304 0 5 0C7.75696 0 10 2.3363 10 5.20801V5.35199C10 6.80432 9.20056 8.49677 7.6239 10.3822C6.48096 11.749 5.354 12.7021 5.30652 12.742L5 13L4.69348 12.742C4.646 12.7021 3.51904 11.749 2.3761 10.3822C0.799438 8.49677 0 6.80432 0 5.35199V5.20801ZM5 7.79999C6.38074 7.79999 7.5 6.63593 7.5 5.19995C7.5 3.76404 6.38074 2.59998 5 2.59998C3.61926 2.59998 2.5 3.76404 2.5 5.19995C2.5 6.63593 3.61926 7.79999 5 7.79999Z" fill="#FFCC00"/>
</svg>
