<svg width="24" height="24" viewBox="0 0 24 24" fill="none" xmlns="http://www.w3.org/2000/svg">
<path d="M14.159 0C8.73269 0 4.31799 4.4147 4.31799 9.841C4.31799 12.2174 5.16474 14.3997 6.57231 16.1023L0 22.6746L1.32549 24L7.89775 17.4277C9.6003 18.8353 11.7826 19.6821 14.159 19.6821C19.5854 19.6821 24 15.2674 24 9.84105C24 4.41474 19.5854 0 14.159 0ZM14.159 17.8076C9.76628 17.8076 6.19248 14.2338 6.19248 9.841C6.19248 5.44825 9.76628 1.87449 14.159 1.87449C18.5518 1.87449 22.1256 5.44829 22.1256 9.84105C22.1256 14.2338 18.5518 17.8076 14.159 17.8076Z" transform="translate(24) scale(-1 1)" fill="#fff"/>
</svg>
