<svg width="24" height="22" viewBox="0 0 24 22" fill="none" xmlns="http://www.w3.org/2000/svg"><path d="M22.11 2.04A6.073 6.073 0 0 0 17.53 0C15.05 0 13.137 1.316 12 3.806 10.863 1.316 8.95 0 6.469 0c-1.773 0-3.4.724-4.579 2.04C.654 3.42 0 5.308 0 7.5c0 2.632 1.518 5.526 4.51 8.603 2.714 2.79 5.689 4.748 6.257 5.113l.765.486L12 22l.469-.298.763-.486c.569-.365 3.543-2.323 6.257-5.113C22.482 13.026 24 10.131 24 7.501c0-2.193-.654-4.082-1.89-5.461zm-3.9 12.553c-2.567 2.64-5.382 4.492-5.92 4.837l-.29.185-.29-.185c-.538-.345-3.353-2.198-5.92-4.837-2.56-2.633-3.915-5.086-3.915-7.092 0-3.2 1.889-5.436 4.594-5.436 1.76 0 3.014.859 3.835 2.625.66 1.416.76 2.885.76 2.9l.037-.003h1.834c.001-.014.101-1.452.737-2.847.809-1.775 2.107-2.675 3.86-2.675 2.704 0 4.593 2.235 4.593 5.436 0 2.006-1.354 4.459-3.915 7.092z" fill="#fff"/></svg>