<svg width="274" height="39" viewBox="0 0 274 39" fill="none" xmlns="http://www.w3.org/2000/svg"><path d="M14.42 16.04c0 1.437-.337 2.493-1.012 3.168-.675.675-1.73 1.012-3.168 1.012-.88 0-1.833-.022-2.86-.066A119.33 119.33 0 0 1 4.52 20a108.755 108.755 0 0 1-3.08-.22v-2.97c.997.059 1.973.117 2.926.176.821.044 1.68.08 2.574.11.91.03 1.716.044 2.42.044.337 0 .601-.095.792-.286.205-.205.308-.477.308-.814v-.88c0-.88-.44-1.32-1.32-1.32H3.86v-3.08H8.7c.88 0 1.32-.44 1.32-1.32V9c0-.88-.44-1.32-1.32-1.32H1.66V4.6H9.8c1.437 0 2.493.33 3.168.99.675.645 1.012 1.635 1.012 2.97 0 .88-.205 1.599-.616 2.156a3.136 3.136 0 0 1-1.584 1.144c.323.088.645.227.968.418.323.19.601.447.836.77.25.323.447.719.594 1.188.161.455.242.983.242 1.584v.22zm6.372 1.1c.279 0 .572-.022.88-.066.308-.044.594-.095.858-.154.308-.059.609-.132.902-.22v-1.32h-3.19a.746.746 0 0 0-.55.22.746.746 0 0 0-.22.55v.22a.75.75 0 0 0 .77.77h.55zm-1.87 3.08c-.997 0-1.796-.3-2.398-.902-.601-.601-.902-1.4-.902-2.398v-.99c0-.997.3-1.797.902-2.398.602-.601 1.4-.902 2.398-.902h4.51v-.88a.747.747 0 0 0-.22-.55.746.746 0 0 0-.55-.22c-.586 0-1.224.022-1.914.066a67.61 67.61 0 0 0-1.914.11c-.704.059-1.408.11-2.112.154V8.56a64.092 64.092 0 0 1 2.464-.22 79.61 79.61 0 0 1 2.354-.154c.85-.044 1.665-.066 2.442-.066.998 0 1.797.3 2.398.902.602.601.902 1.4.902 2.398V20h-3.41l-.22-1.1c-.381.25-.792.47-1.232.66-.381.161-.806.308-1.276.44a4.84 4.84 0 0 1-1.452.22h-.77zM40.476 4.05l.33 3.08-6.82.77c-.733.088-1.1.455-1.1 1.1v1.32c.426-.088.858-.161 1.298-.22a24.6 24.6 0 0 1 1.21-.154c.44-.044.85-.066 1.232-.066h.99c.998 0 1.797.3 2.398.902.602.601.902 1.4.902 2.398v3.52c0 1.1-.315 1.965-.946 2.596-.616.616-1.474.924-2.574.924h-4.84c-1.1 0-1.965-.308-2.596-.924-.616-.63-.924-1.496-.924-2.596V8.89c0-1.056.352-1.943 1.056-2.662.719-.719 1.687-1.151 2.904-1.298l7.48-.88zm-4.29 13.2c.587 0 .88-.293.88-.88v-2.75a.747.747 0 0 0-.22-.55.746.746 0 0 0-.55-.22h-.77c-.308 0-.623.015-.946.044-.308.015-.586.037-.836.066-.293.044-.58.08-.858.11v3.3c0 .587.294.88.88.88h2.42zm11.118-.11c.279 0 .572-.022.88-.066.308-.044.594-.095.858-.154a9 9 0 0 0 .902-.22v-1.32h-3.19a.746.746 0 0 0-.55.22.746.746 0 0 0-.22.55v.22c0 .22.073.403.22.55.147.147.33.22.55.22h.55zm-1.87 3.08c-.997 0-1.797-.3-2.398-.902-.601-.601-.902-1.4-.902-2.398v-.99c0-.997.3-1.797.902-2.398.601-.601 1.4-.902 2.398-.902h4.51v-.88a.746.746 0 0 0-.22-.55.746.746 0 0 0-.55-.22c-.587 0-1.225.022-1.914.066-.675.03-1.313.066-1.914.11-.704.059-1.408.11-2.112.154V8.56a64.11 64.11 0 0 1 2.464-.22 78.52 78.52 0 0 1 2.354-.154c.85-.044 1.665-.066 2.442-.066.997 0 1.797.3 2.398.902.601.601.902 1.4.902 2.398V20h-3.41l-.22-1.1c-.381.25-.792.47-1.232.66-.381.161-.807.308-1.276.44a4.83 4.83 0 0 1-1.452.22h-.77zM60.388 7.24c-1.907 0-2.86-.953-2.86-2.86v-.66h2.86v.55c0 .22.073.403.22.55.147.147.33.22.55.22h.66c.22 0 .403-.073.55-.22a.746.746 0 0 0 .22-.55v-.55h2.86v.66c0 1.907-.953 2.86-2.86 2.86h-2.2zm2.97 1.1h4.07V20h-3.85v-6.38L59.838 20h-4.07V8.34h3.85v6.38l3.74-6.38zm11.767 7.26h-1.65V20h-3.85V8.34h3.85v4.29h1.76l1.21-2.42c.132-.279.294-.543.484-.792a3.612 3.612 0 0 1 1.584-1.122 3.397 3.397 0 0 1 1.122-.176c.22 0 .433.015.638.044.22.015.411.037.572.066l.55.11v2.97h-.77a1.12 1.12 0 0 0-.704.22 1.387 1.387 0 0 0-.396.44l-1.1 2.2 3.3 5.83h-4.18l-2.42-4.4zm12.312 1.54c.279 0 .572-.022.88-.066.308-.044.594-.095.858-.154a9 9 0 0 0 .902-.22v-1.32h-3.19a.746.746 0 0 0-.55.22.746.746 0 0 0-.22.55v.22c0 .22.073.403.22.55.147.147.33.22.55.22h.55zm-1.87 3.08c-.997 0-1.797-.3-2.398-.902-.602-.601-.902-1.4-.902-2.398v-.99c0-.997.3-1.797.902-2.398.601-.601 1.4-.902 2.398-.902h4.51v-.88a.746.746 0 0 0-.22-.55.746.746 0 0 0-.55-.22c-.587 0-1.225.022-1.914.066-.675.03-1.313.066-1.914.11-.704.059-1.408.11-2.112.154V8.56a64.11 64.11 0 0 1 2.464-.22c.718-.059 1.503-.11 2.354-.154.85-.044 1.665-.066 2.442-.066.997 0 1.797.3 2.398.902.601.601.902 1.4.902 2.398V20h-3.41l-.22-1.1c-.382.25-.792.47-1.232.66a10.88 10.88 0 0 1-1.276.44c-.47.147-.954.22-1.452.22h-.77zM107.78 8.34V20h-3.85v-8.69h-3.08l-.33 5.61c-.059.997-.389 1.797-.99 2.398-.602.601-1.372.902-2.31.902-.22 0-.462-.015-.726-.044a9.639 9.639 0 0 1-.704-.066c-.264-.03-.52-.066-.77-.11v-2.86h.88c.557 0 .85-.293.88-.88l.44-7.92h10.56z" fill="#fff"/><path d="M113.933 20.22c-1.437 0-2.493-.337-3.168-1.012-.675-.675-1.012-1.73-1.012-3.168V9c0-1.54.345-2.655 1.034-3.344.704-.704 1.826-1.056 3.366-1.056h7.92v3.08h-7.04c-.88 0-1.32.44-1.32 1.32v7.04c0 .337.095.609.286.814.205.19.477.286.814.286h.968c.367-.015.748-.03 1.144-.044l1.188-.044a30.16 30.16 0 0 0 1.188-.066c.895-.059 1.819-.117 2.772-.176v2.97c-.983.088-1.958.161-2.926.22-.836.059-1.723.11-2.662.154-.924.044-1.775.066-2.552.066zm23.323-.22h-3.96V7.68h-5.5V20h-3.96V4.6h13.42V20zm14.86 0h-12.21V4.6h12.21v3.08h-8.25v2.97h6.49v3.08h-6.49v3.19h8.25V20zm1.755 0V4.6h3.96v12.32h5.5V4.6h3.96v12.32h1.65v5.94h-3.74l-.22-2.86h-11.11zm26.722-11.22c0-.88-.44-1.32-1.32-1.32h-3.74c-.88 0-1.32.44-1.32 1.32v7.04c0 .88.44 1.32 1.32 1.32h3.74c.88 0 1.32-.44 1.32-1.32V8.78zm3.96 7.04c0 1.54-.352 2.662-1.056 3.366-.689.69-1.804 1.034-3.344 1.034h-5.5c-1.54 0-2.662-.345-3.366-1.034-.689-.704-1.034-1.826-1.034-3.366V8.78c0-1.54.345-2.655 1.034-3.344.704-.704 1.826-1.056 3.366-1.056h5.5c1.54 0 2.655.352 3.344 1.056.704.69 1.056 1.804 1.056 3.344v7.04zm3.981-11.22h11.55v12.32h1.65v5.94h-3.74l-.22-2.86h-8.58l-.22 2.86h-3.74v-5.94h1.43a4.48 4.48 0 0 0 .616-.902c.161-.293.308-.638.44-1.034.146-.41.234-.865.264-1.364l.55-9.02zm7.59 12.32V7.68h-4.07l-.33 5.5a6.75 6.75 0 0 1-.242 1.518c-.132.455-.272.85-.418 1.188a6.325 6.325 0 0 1-.55 1.034h5.61zM215.71 20H203.5V4.6h12.21v3.08h-8.25v2.97h6.49v3.08h-6.49v3.19h8.25V20zm2.635-11.77a1.387 1.387 0 0 0-.396-.44.904.904 0 0 0-.594-.22h-.88V4.6c.19-.03.396-.066.616-.11a7 7 0 0 1 .638-.066c.234-.03.476-.044.726-.044.777 0 1.4.198 1.87.594.484.381.887.88 1.21 1.496l2.2 4.18h1.54V4.6h3.96v6.05h1.54l2.2-4.18c.322-.616.718-1.115 1.188-1.496.484-.396 1.114-.594 1.892-.594.249 0 .491.015.726.044.234.015.447.037.638.066.22.044.425.08.616.11v2.97h-.88a.904.904 0 0 0-.594.22 1.387 1.387 0 0 0-.396.44l-2.09 3.96 4.29 7.81h-4.18l-3.41-6.27h-1.54V20h-3.96v-6.27h-1.54l-3.41 6.27h-4.18l4.29-7.81-2.09-3.96zm23.534-3.63h11.55v12.32h1.65v5.94h-3.74l-.22-2.86h-8.58l-.22 2.86h-3.74v-5.94h1.43a4.44 4.44 0 0 0 .616-.902 6.2 6.2 0 0 0 .44-1.034c.147-.41.235-.865.264-1.364l.55-9.02zm7.59 12.32V7.68h-4.07l-.33 5.5a6.693 6.693 0 0 1-.242 1.518 9.95 9.95 0 0 1-.418 1.188 6.175 6.175 0 0 1-.55 1.034h5.61zM259.595 20h-4.29l5.83-15.4h4.4l5.83 15.4h-4.29l-.99-2.75h-5.5l-.99 2.75zm1.98-5.61h3.52l-1.76-5.17-1.76 5.17z" fill="#FC0"/><path d="M.533 31.771c0-.62.121-1.18.363-1.675a2.758 2.758 0 0 1 1.02-1.149 2.79 2.79 0 0 1 1.494-.404c.863 0 1.56.299 2.092.896.535.598.803 1.393.803 2.385v.076a3.77 3.77 0 0 1-.358 1.664 2.67 2.67 0 0 1-1.013 1.143c-.438.273-.942.41-1.512.41-.86 0-1.557-.299-2.092-.896-.531-.598-.797-1.389-.797-2.373v-.077zm1.09.13c0 .703.162 1.267.486 1.693.329.425.766.638 1.313.638.55 0 .988-.214 1.312-.644.325-.434.487-1.04.487-1.817 0-.695-.166-1.257-.498-1.687a1.564 1.564 0 0 0-1.313-.65c-.535 0-.967.212-1.295.638-.328.426-.492 1.035-.492 1.828zm6.886 2.214l.375-.463c.422-.547.663-1.367.721-2.46l.1-2.532h4.084v5.455h.814v2.748H13.52V35H9.095v1.863H8.011l.006-2.748h.492zm1.284 0h2.912v-4.453h-1.951l-.065 1.512c-.066 1.262-.365 2.242-.896 2.941zm9.962 1.002c-.86 0-1.558-.281-2.097-.844-.54-.566-.809-1.322-.809-2.267v-.2c0-.628.12-1.189.357-1.681a2.814 2.814 0 0 1 1.008-1.16 2.535 2.535 0 0 1 1.407-.422c.824 0 1.464.271 1.921.814.457.543.686 1.32.686 2.332v.452h-4.295c.016.625.197 1.13.545 1.517.351.383.797.574 1.336.574.383 0 .707-.078.973-.234.265-.156.498-.363.697-.621l.662.516c-.531.816-1.328 1.224-2.39 1.224zm-.134-5.683c-.438 0-.805.16-1.102.48-.297.316-.48.762-.55 1.336h3.175v-.082c-.031-.55-.18-.977-.445-1.277-.266-.305-.625-.457-1.079-.457zm10.243 2.812h-.761V35h-1.084v-2.754h-.762L25.48 35h-1.37l2.267-3.281-2.05-3.059h1.312l1.634 2.625h.745V28.66h1.084v2.625h.738l1.646-2.625H32.8l-2.057 3.065L33.011 35H31.64l-1.776-2.754zm5.398 1.87l.375-.464c.422-.547.663-1.367.721-2.46l.1-2.532h4.084v5.455h.814v2.748h-1.084V35h-4.424v1.863h-1.084l.006-2.748h.492zm1.284 0h2.912v-4.454h-1.951l-.065 1.512c-.066 1.262-.365 2.242-.896 2.941zM47.79 35c-.062-.125-.113-.348-.152-.668-.504.523-1.105.785-1.805.785-.625 0-1.138-.176-1.54-.527a1.728 1.728 0 0 1-.598-1.348c0-.66.25-1.172.75-1.535.504-.367 1.21-.55 2.12-.55h1.055v-.499c0-.379-.113-.68-.34-.902-.226-.227-.56-.34-1.001-.34-.387 0-.711.098-.973.293-.262.195-.393.432-.393.709h-1.09c0-.316.112-.621.335-.914.226-.297.53-.531.914-.703.386-.172.81-.258 1.271-.258.73 0 1.303.184 1.717.55.414.364.629.866.645 1.507v2.918c0 .582.074 1.044.222 1.388V35H47.79zm-1.798-.826c.34 0 .662-.088.966-.264a1.59 1.59 0 0 0 .662-.685v-1.301h-.85c-1.327 0-1.991.388-1.991 1.166 0 .34.113.605.34.797.226.191.517.287.873.287zm9.975-.059l.375-.463c.422-.547.663-1.367.721-2.46l.1-2.532h4.084v5.455h.814v2.748h-1.084V35h-4.424v1.863H55.47l.006-2.748h.492zm1.284 0h2.912v-4.453h-1.951l-.065 1.512c-.066 1.262-.365 2.242-.896 2.941zM69.78 28.66V35h-1.09v-5.443h-2.156l-.13 2.373c-.07 1.09-.253 1.869-.55 2.338-.293.468-.76.713-1.4.732h-.434v-.955l.31-.024c.352-.039.604-.242.756-.609.153-.367.25-1.047.293-2.039l.118-2.713h4.283zm7.906 0V35h-1.09v-2.467h-1.635L73.468 35h-1.172l1.594-2.63c-.406-.15-.719-.378-.938-.686a1.876 1.876 0 0 1-.322-1.09c0-.578.217-1.043.65-1.395.434-.355 1.014-.535 1.74-.539h2.667zm-3.967 1.945c0 .31.105.56.316.75.211.188.49.284.838.288h1.723v-2.104h-1.559c-.402 0-.722.1-.96.299a.945.945 0 0 0-.358.767zm16.68 1.295c0 .965-.22 1.743-.662 2.332-.442.59-1.04.885-1.793.885-.77 0-1.375-.244-1.817-.732v3.053h-1.084V28.66h.99l.053.703c.442-.547 1.055-.82 1.84-.82.762 0 1.364.287 1.805.861.445.575.668 1.373.668 2.397v.1zm-1.084-.123c0-.714-.152-1.279-.457-1.693-.305-.414-.723-.621-1.254-.621-.656 0-1.148.29-1.477.873v3.03c.325.577.82.866 1.489.866.52 0 .931-.205 1.236-.615.309-.414.463-1.027.463-1.84zm7.7 3.223c-.062-.125-.112-.348-.152-.668-.504.523-1.105.785-1.804.785-.625 0-1.139-.176-1.541-.527a1.728 1.728 0 0 1-.598-1.348c0-.66.25-1.172.75-1.535.504-.367 1.211-.55 2.121-.55h1.055v-.499c0-.379-.113-.68-.34-.902-.227-.227-.56-.34-1.002-.34-.387 0-.71.098-.973.293-.261.195-.392.432-.392.709h-1.09c0-.316.111-.621.334-.914.227-.297.531-.531.914-.703.387-.172.81-.258 1.272-.258.73 0 1.302.184 1.716.55.414.364.63.866.645 1.507v2.918c0 .582.074 1.044.222 1.388V35h-1.136zm-1.798-.826c.34 0 .662-.088.967-.264.304-.176.525-.404.662-.685v-1.301h-.85c-1.328 0-1.992.388-1.992 1.166 0 .34.113.605.34.797.227.191.518.287.873.287zm8.515-5.15c.797 0 1.434.267 1.91.802.481.531.721 1.233.721 2.104v.1c0 .597-.115 1.132-.346 1.605-.23.469-.562.834-.996 1.096-.429.257-.925.386-1.488.386-.852 0-1.537-.283-2.057-.85-.519-.57-.779-1.333-.779-2.29v-.528c0-1.332.246-2.39.738-3.176.496-.785 1.227-1.263 2.192-1.435.547-.098.916-.217 1.107-.358a.679.679 0 0 0 .287-.58h.891c0 .489-.111.87-.334 1.143-.219.273-.57.467-1.055.58l-.808.182c-.645.152-1.129.41-1.453.773-.321.36-.53.84-.627 1.442.574-.665 1.273-.997 2.097-.997zm-.211.89c-.531 0-.953.18-1.265.54-.313.355-.469.849-.469 1.482v.093c0 .68.156 1.219.469 1.617.316.395.742.592 1.277.592.539 0 .965-.199 1.277-.597.313-.399.469-.98.469-1.746 0-.598-.158-1.077-.474-1.436-.313-.363-.741-.545-1.284-.545zm5.094 1.857c0-.62.121-1.18.363-1.675a2.756 2.756 0 0 1 1.02-1.149c.437-.27.935-.404 1.494-.404.863 0 1.56.299 2.092.896.535.598.802 1.393.802 2.385v.076c0 .618-.119 1.172-.357 1.664a2.67 2.67 0 0 1-1.014 1.143c-.437.273-.941.41-1.512.41-.859 0-1.556-.299-2.091-.896-.532-.598-.797-1.389-.797-2.373v-.077zm1.09.13c0 .703.162 1.267.486 1.693.328.425.766.638 1.312.638.551 0 .989-.214 1.313-.644.324-.434.486-1.04.486-1.817 0-.695-.166-1.257-.498-1.687a1.563 1.563 0 0 0-1.312-.65c-.535 0-.967.212-1.295.638-.328.426-.492 1.035-.492 1.828zm11.943-2.362h-2.127V35h-1.084v-5.46h-2.086v-.88h5.297v.88zm3.558 1.307h1.646c.719.008 1.288.195 1.706.562.417.367.626.865.626 1.494 0 .633-.214 1.141-.644 1.524-.43.383-1.008.574-1.734.574h-2.684v-6.34h1.084v2.186zm6.24 4.154h-1.09v-6.34h1.09V35zm-6.24-3.27v2.385h1.611c.407 0 .721-.103.944-.31.222-.211.334-.498.334-.862 0-.351-.11-.638-.329-.861-.214-.227-.517-.344-.908-.352h-1.652zm17.851-3.07h1.084V35h-1.084v-4.623L140.133 35h-1.084v-6.34h1.084v4.63l2.924-4.63zM155.412 35c-.063-.125-.114-.348-.153-.668-.504.523-1.105.785-1.804.785-.625 0-1.139-.176-1.541-.527a1.726 1.726 0 0 1-.598-1.348c0-.66.25-1.172.75-1.535.504-.367 1.211-.55 2.121-.55h1.055v-.499c0-.379-.113-.68-.34-.902-.227-.227-.561-.34-1.002-.34-.387 0-.711.098-.973.293-.261.195-.392.432-.392.709h-1.09c0-.316.111-.621.334-.914a2.31 2.31 0 0 1 .914-.703 3.097 3.097 0 0 1 1.271-.258c.731 0 1.303.184 1.717.55.414.364.629.866.645 1.507v2.918c0 .582.074 1.044.222 1.388V35h-1.136zm-1.799-.826c.34 0 .662-.088.967-.264a1.6 1.6 0 0 0 .662-.685v-1.301h-.85c-1.328 0-1.992.388-1.992 1.166 0 .34.113.605.34.797.226.191.517.287.873.287zm7.707-1.875h-.791V35h-1.09v-6.34h1.09v2.684h.709l2.132-2.684h1.313l-2.508 3.047L164.894 35h-1.377l-2.197-2.701zm10.536-2.76h-2.127V35h-1.084v-5.46h-2.085v-.88h5.296v.88zm6.477-.879h1.084V35h-1.084v-4.623L175.409 35h-1.084v-6.34h1.084v4.63l2.924-4.63zm4.243 6.34v-6.34h2.473c.844 0 1.49.149 1.94.445.453.293.679.725.679 1.295 0 .293-.088.559-.263.797-.176.235-.436.414-.78.54.383.09.69.265.92.527.235.261.352.574.352.937 0 .582-.215 1.028-.645 1.336-.426.309-1.029.463-1.81.463h-2.866zm1.084-2.783v1.91h1.793c.454 0 .791-.084 1.014-.252.227-.168.34-.404.34-.709 0-.633-.465-.95-1.395-.95h-1.752zm0-.867h1.401c1.015 0 1.523-.297 1.523-.891 0-.594-.48-.9-1.441-.92h-1.483v1.81zM195.832 35h-1.084v-2.707h-2.912V35h-1.09v-6.34h1.09v2.748h2.912V28.66h1.084V35zm2.779-3.229c0-.62.121-1.18.363-1.675a2.756 2.756 0 0 1 1.02-1.149c.437-.27.935-.404 1.494-.404.863 0 1.561.299 2.092.896.535.598.802 1.393.802 2.385v.076c0 .618-.119 1.172-.357 1.664-.234.489-.572.87-1.014 1.143-.437.274-.941.41-1.511.41-.86 0-1.557-.299-2.092-.896-.531-.598-.797-1.389-.797-2.373v-.077zm1.09.13c0 .703.162 1.267.486 1.693.328.426.766.638 1.313.638.55 0 .988-.214 1.312-.644.324-.434.487-1.04.487-1.817 0-.695-.167-1.257-.499-1.687a1.563 1.563 0 0 0-1.312-.65c-.535 0-.967.212-1.295.638-.328.426-.492 1.035-.492 1.828zm11.457-2.344h-2.924V35h-1.09v-6.34h4.014v.897zm1.859 2.214c0-.62.121-1.18.363-1.675a2.76 2.76 0 0 1 1.019-1.149 2.79 2.79 0 0 1 1.495-.404c.863 0 1.56.299 2.091.896.536.598.803 1.393.803 2.385v.076c0 .618-.119 1.172-.357 1.664-.235.489-.573.87-1.014 1.143-.437.274-.941.41-1.512.41-.859 0-1.556-.299-2.091-.896-.532-.598-.797-1.389-.797-2.373v-.077zm1.089.13c0 .703.163 1.267.487 1.693.328.426.765.638 1.312.638.551 0 .989-.214 1.313-.644.324-.434.486-1.04.486-1.817 0-.695-.166-1.257-.498-1.687a1.564 1.564 0 0 0-1.312-.65c-.536 0-.967.212-1.295.638-.328.426-.493 1.035-.493 1.828zm11.371-.13c0-.62.121-1.18.363-1.675a2.756 2.756 0 0 1 1.02-1.149c.437-.27.935-.404 1.494-.404.863 0 1.56.299 2.092.896.535.598.802 1.393.802 2.385v.076c0 .618-.119 1.172-.357 1.664-.234.489-.572.87-1.014 1.143-.437.274-.941.41-1.511.41-.86 0-1.557-.299-2.092-.896-.531-.598-.797-1.389-.797-2.373v-.077zm1.09.13c0 .703.162 1.267.486 1.693.328.426.766.638 1.313.638.55 0 .988-.214 1.312-.644.324-.434.486-1.04.486-1.817 0-.695-.166-1.257-.498-1.687a1.563 1.563 0 0 0-1.312-.65c-.535 0-.967.212-1.295.638-.328.426-.492 1.035-.492 1.828zm11.943-2.362h-2.127V35h-1.084v-5.46h-2.086v-.88h5.297v.88zm1.818 4.576l.375-.463c.422-.547.662-1.367.721-2.46l.099-2.532h4.084v5.455h.815v2.748h-1.084V35h-4.424v1.863h-1.084l.006-2.748h.492zm1.283 0h2.912v-4.453h-1.951l-.064 1.512c-.067 1.262-.366 2.242-.897 2.941zm8.515-3.27h1.647c.719.009 1.287.196 1.705.563.418.367.627.865.627 1.494 0 .633-.215 1.141-.645 1.524-.429.383-1.007.574-1.734.574h-2.684v-6.34h1.084v2.186zM256.367 35h-1.09v-6.34h1.09V35zm-6.241-3.27v2.385h1.612c.406 0 .72-.103.943-.31.223-.211.334-.498.334-.862 0-.351-.109-.638-.328-.861-.215-.227-.518-.344-.908-.352h-1.653zm11.58-.755l1.406-2.315h1.266l-2.074 3.135L264.443 35h-1.254l-1.465-2.373L260.259 35h-1.26l2.139-3.205-2.074-3.135h1.254l1.388 2.315zm9.06 4.025c-.062-.125-.113-.348-.152-.668-.504.524-1.105.785-1.805.785-.625 0-1.138-.176-1.541-.527a1.729 1.729 0 0 1-.597-1.348c0-.66.25-1.172.75-1.535.504-.367 1.211-.55 2.121-.55h1.054v-.499c0-.379-.113-.68-.339-.902-.227-.227-.561-.34-1.002-.34-.387 0-.711.098-.973.293-.262.195-.393.432-.393.709H266.8c0-.316.111-.621.334-.914a2.31 2.31 0 0 1 .914-.703 3.09 3.09 0 0 1 1.271-.258c.731 0 1.303.184 1.717.55.414.364.629.866.644 1.507v2.918c0 .582.075 1.045.223 1.388V35h-1.137zm-1.798-.826a1.9 1.9 0 0 0 .966-.264 1.59 1.59 0 0 0 .662-.685v-1.301h-.849c-1.328 0-1.992.389-1.992 1.166 0 .34.113.605.34.797.226.191.517.287.873.287z" fill="#fff" fill-opacity=".6"/></svg>