<svg width="25" height="24" viewBox="0 0 25 24" fill="none" xmlns="http://www.w3.org/2000/svg"><path d="M23.72 8.039l-6.828-.999-3.05-6.205c-.548-1.106-2.132-1.12-2.683 0L8.107 7.04l-6.827 1C.056 8.217-.435 9.73.453 10.598l4.94 4.827-1.169 6.82c-.21 1.232 1.084 2.156 2.169 1.58l6.107-3.22 6.108 3.22c1.084.571 2.378-.348 2.168-1.58l-1.168-6.82 4.939-4.827c.888-.867.397-2.381-.827-2.56zM18.005 14.9l1.299 7.593-6.804-3.58-6.8 3.585L7 14.905 1.495 9.52l7.603-1.106L12.5 1.5l3.402 6.914 7.603 1.106-5.5 5.38z" fill="#000"/></svg>